<svg width="2560" height="2560" xmlns="http://www.w3.org/2000/svg" preserveAspectRatio="xMidYMid meet">
 <metadata>Created by potrace 1.15, written by Peter Selinger 2001-2017</metadata>

 <g>
  <title>background</title>
  <rect fill="#f5e9be" id="canvas_background" height="2562" width="2562" y="-1" x="-1"/>
 </g>
 <g>
  <title>Layer 1</title>
  <g id="svg_1" fill="#000000" transform="translate(0,2560) scale(0.10000000149011612,-0.10000000149011612) ">
   <path id="svg_2" d="m0,12800l0,-12800l7055,0l7055,0l1,3553l0,3552l50,-185c211,-788 424,-1219 718,-1452c124,-99 277,-164 428,-183c29,-4 57,-13 64,-21c15,-18 72,-18 140,2c256,75 586,412 961,984c849,1293 1364,2624 1653,4270c20,112 38,206 40,209c2,2 80,-11 172,-29c528,-100 1074,-165 1698,-200c324,-18 1154,-30 1415,-19c904,35 1520,226 1890,586l95,92l-109,1l-108,0l-56,-51c-262,-240 -696,-394 -1302,-463c-385,-44 -505,-50 -1010,-50c-391,0 -535,3 -685,17c-519,48 -1003,117 -1441,208c-189,39 -542,124 -551,133c-3,2 1,14 7,27c17,31 48,371 60,652c23,583 -38,1091 -187,1552c-246,757 -722,1297 -1371,1554c-538,214 -1285,261 -1732,111c-99,-33 -238,-101 -321,-158c-239,-162 -376,-349 -446,-607c-25,-94 -27,-114 -28,-310c0,-181 3,-226 23,-325c84,-413 296,-785 643,-1127c321,-316 699,-572 1274,-863c573,-290 1122,-486 1738,-621c97,-21 147,-37 147,-45c0,-59 -109,-515 -194,-810c-301,-1050 -759,-2200 -1351,-3399c-392,-793 -666,-1140 -856,-1083c-111,33 -170,211 -210,628c-8,76 -14,783 -19,2075c-5,1224 -12,2031 -19,2150c-6,105 -15,296 -21,425c-17,415 -79,770 -147,842c-64,68 -202,97 -378,79c-182,-18 -478,-93 -622,-157l-53,-23l0,7040l0,7039l-7055,0l-7055,0l0,-12800zm8699,10535c502,-71 883,-228 1208,-498c235,-196 389,-450 456,-757c71,-320 53,-665 -59,-1115c-330,-1324 -962,-2757 -1832,-4155c-462,-742 -1382,-2045 -2065,-2925c-387,-498 -1145,-1439 -1511,-1876l-83,-99l-7,-118c-28,-493 -45,-2246 -27,-2787c24,-718 68,-1274 141,-1786c30,-209 94,-574 108,-618c6,-17 14,8 31,100c59,313 191,758 321,1084c311,784 844,1715 1347,2357c228,290 517,599 697,744c313,253 624,371 872,334c476,-72 797,-434 955,-1075c84,-342 119,-706 119,-1235c0,-883 -85,-1828 -314,-3495c-41,-293 -56,-435 -60,-570c-4,-99 -14,-245 -22,-325c-27,-250 -20,-354 24,-393c9,-8 52,-22 94,-31c43,-10 80,-21 83,-27c12,-19 63,-8 111,23c73,48 405,378 581,578c85,96 255,308 377,470c917,1217 1831,2603 2729,4140c480,823 781,1321 788,1308c4,-8 17,-74 29,-148l22,-135l-114,-200c-63,-110 -191,-335 -283,-500c-694,-1242 -886,-1566 -1270,-2140c-562,-840 -1072,-1544 -1686,-2325c-434,-553 -797,-924 -1090,-1117c-293,-192 -512,-221 -774,-103c-397,180 -675,642 -794,1320c-64,365 -83,667 -98,1540c-12,741 46,1689 178,2920c73,678 63,949 -37,1060c-43,47 -82,57 -156,40c-379,-90 -866,-752 -1566,-2130c-90,-179 -195,-381 -232,-450c-193,-358 -425,-847 -545,-1150c-70,-176 -164,-461 -195,-590c-18,-75 -31,-106 -63,-147c-135,-179 -436,-446 -560,-498c-56,-23 -119,-34 -156,-27c-32,7 -35,12 -83,132c-447,1137 -731,2692 -828,4535c-29,566 -35,811 -35,1630c0,887 7,1176 46,1865c158,2834 677,5125 1574,6945c422,856 959,1564 1475,1945c361,266 845,442 1345,489c155,15 698,6 834,-14zm7572,-8835c373,-36 672,-161 979,-408c132,-107 182,-154 265,-252c305,-361 478,-817 547,-1445c17,-153 17,-803 0,-970c-36,-360 -45,-425 -62,-425c-26,0 -296,76 -420,118c-594,202 -1180,531 -1615,905c-345,296 -590,650 -719,1037c-119,356 -136,679 -49,899c110,278 396,479 763,535c118,18 180,19 311,6z"/>
   <path id="svg_3" d="m8693,23020c-607,-95 -1214,-607 -1654,-1395c-128,-229 -338,-671 -487,-1025c-257,-609 -513,-1365 -721,-2130c-418,-1538 -801,-3882 -945,-5785c-14,-181 -28,-364 -31,-405c-5,-66 -4,-73 8,-60c51,52 1231,1587 1539,2000c586,787 1492,2122 1918,2824c834,1377 1417,2697 1783,4041c94,345 127,551 127,798c0,283 -54,481 -180,667c-70,102 -199,213 -322,276c-78,40 -292,122 -386,148c-210,60 -455,77 -649,46z"/>
  </g>
 </g>
</svg>