<?xml version="1.0" encoding="UTF-8" standalone="no"?>
<svg
   xmlns:dc="http://purl.org/dc/elements/1.1/"
   xmlns:cc="http://creativecommons.org/ns#"
   xmlns:rdf="http://www.w3.org/1999/02/22-rdf-syntax-ns#"
   xmlns:svg="http://www.w3.org/2000/svg"
   xmlns="http://www.w3.org/2000/svg"
   viewBox="0 0 480 480"
   height="480"
   width="480"
   xml:space="preserve"
   id="svg2"
   version="1.1"><metadata
     id="metadata8"><rdf:RDF><cc:Work
         rdf:about=""><dc:format>image/svg+xml</dc:format><dc:type
           rdf:resource="http://purl.org/dc/dcmitype/StillImage" /></cc:Work></rdf:RDF></metadata><defs
     id="defs6"><clipPath
       id="clipPath18"
       clipPathUnits="userSpaceOnUse"><path
         id="path16"
         d="M 0,360 H 360 V 0 H 0 Z" /></clipPath></defs><g
     transform="matrix(1.3333333,0,0,-1.3333333,0,480)"
     id="g10"><g
       id="g12"><g
         clip-path="url(#clipPath18)"
         id="g14"><g
           transform="translate(172.7533,133.1664)"
           id="g20"><path
             id="path22"
             style="fill:none;stroke:#118080;stroke-width:3;stroke-linecap:butt;stroke-linejoin:miter;stroke-miterlimit:10;stroke-dasharray:none;stroke-opacity:1"
             d="m 0,0 v -23.44 c 0,0 -13.232,1.245 -14.367,-10.964" /></g><g
           transform="translate(154.6061,104.8113)"
           id="g24"><path
             id="path26"
             style="fill:none;stroke:#118080;stroke-width:3;stroke-linecap:butt;stroke-linejoin:miter;stroke-miterlimit:10;stroke-dasharray:none;stroke-opacity:1"
             d="m 0,0 c 0,0 8.696,13.232 18.147,4.915 0,0 7.562,1.89 7.562,-4.915" /></g><g
           transform="translate(203.8809,133.696)"
           id="g28"><path
             id="path30"
             style="fill:none;stroke:#118080;stroke-width:3;stroke-linecap:butt;stroke-linejoin:miter;stroke-miterlimit:10;stroke-dasharray:none;stroke-opacity:1"
             d="m 0,0 v -23.44 c 0,0 13.232,1.245 14.367,-10.964" /></g><g
           transform="translate(222.0281,105.341)"
           id="g32"><path
             id="path34"
             style="fill:none;stroke:#118080;stroke-width:3;stroke-linecap:butt;stroke-linejoin:miter;stroke-miterlimit:10;stroke-dasharray:none;stroke-opacity:1"
             d="m 0,0 c 0,0 -8.696,13.232 -18.147,4.915 0,0 -7.562,1.89 -7.562,-4.915" /></g><g
           transform="translate(150.5736,306.9771)"
           id="g36"><path
             id="path38"
             style="fill:#1c918e;fill-opacity:1;fill-rule:nonzero;stroke:none"
             d="m 0,0 c -1.134,5.671 -12.476,22.684 -12.476,22.684 -8.318,12.098 -12.476,0 -12.476,0 0,-12.098 -8.696,-34.782 -8.696,-34.782 -3.781,-4.915 -7.939,-26.118 -7.939,-26.118 -10.586,-0.031 -11.721,-6.646 -11.721,-6.646 4.537,6.177 8.696,-0.064 8.696,-0.064 -8.696,0.064 -9.074,-12.162 -9.074,-12.162 2.647,6.427 8.318,5.293 8.318,5.293 -8.318,-5.293 -5.827,-14.745 -5.827,-14.745 0,8.696 4.693,6.805 4.693,6.805 -3.403,-14.744 6.805,-36.535 6.805,-36.535 6.427,-7.424 18.525,-43.237 18.525,-43.237 8.696,-32.892 57.863,-37.423 57.863,-37.423 L 36.926,-6.165 C 19.132,5.152 0,0 0,0" /></g><g
           transform="translate(277.5789,249.8889)"
           id="g40"><path
             id="path42"
             style="fill:#1c918e;fill-opacity:1;fill-rule:nonzero;stroke:none"
             d="m 0,0 c 0,0 -0.378,12.226 -9.074,12.162 0,0 4.159,6.242 8.696,0.064 0,0 -1.134,6.615 -11.72,6.646 0,0 -4.159,21.203 -7.94,26.118 0,0 -8.695,22.684 -8.695,34.782 0,0 -4.159,12.098 -12.476,0 0,0 -11.342,-17.013 -12.477,-22.684 0,0 -18.853,5.268 -36.647,-6.049 v -170.886 c 0,0 49.124,4.536 57.819,37.428 0,0 12.098,35.813 18.525,43.237 0,0 10.208,21.791 6.806,36.536 0,0 4.692,1.89 4.692,-6.806 0,0 2.491,9.452 -5.826,14.745 0,0 5.671,1.134 8.317,-5.293" /></g><g
           transform="translate(198.0839,253.5808)"
           id="g44"><path
             id="path46"
             style="fill:#31a8a2;fill-opacity:1;fill-rule:nonzero;stroke:none"
             d="m 0,0 c 0,-22.968 -18.619,-41.587 -41.587,-41.587 -22.969,0 -41.588,18.619 -41.588,41.587 0,22.968 18.619,41.587 41.588,41.587 C -18.619,41.587 0,22.968 0,0" /></g><g
           transform="translate(263.4896,251.2992)"
           id="g48"><path
             id="path50"
             style="fill:#31a8a2;fill-opacity:1;fill-rule:nonzero;stroke:none"
             d="m 0,0 c 0,-22.968 -18.619,-41.587 -41.587,-41.587 -22.969,0 -41.588,18.619 -41.588,41.587 0,22.968 18.619,41.587 41.588,41.587 C -18.619,41.587 0,22.968 0,0" /></g><g
           transform="translate(187.6185,253.5808)"
           id="g52"><path
             id="path54"
             style="fill:#ffffff;fill-opacity:1;fill-rule:nonzero;stroke:none"
             d="m 0,0 c 0,-17.435 -14.134,-31.569 -31.569,-31.569 -17.435,0 -31.568,14.134 -31.568,31.569 0,17.435 14.133,31.569 31.568,31.569 C -14.134,31.569 0,17.435 0,0" /></g><g
           transform="translate(180.3344,251.2992)"
           id="g56"><path
             id="path58"
             style="fill:#0a0b0c;fill-opacity:1;fill-rule:nonzero;stroke:none"
             d="m 0,0 c 0,-6.264 -5.078,-11.342 -11.342,-11.342 -6.264,0 -11.342,5.078 -11.342,11.342 0,6.264 5.078,11.342 11.342,11.342 C -5.078,11.342 0,6.264 0,0" /></g><g
           transform="translate(174.7532,248.4187)"
           id="g60"><path
             id="path62"
             style="fill:#ffffff;fill-opacity:1;fill-rule:nonzero;stroke:none"
             d="m 0,0 c 0,-1.591 -1.29,-2.88 -2.88,-2.88 -1.591,0 -2.881,1.289 -2.881,2.88 0,1.591 1.29,2.88 2.881,2.88 C -1.29,2.88 0,1.591 0,0" /></g><g
           transform="translate(255.2926,253.5808)"
           id="g64"><path
             id="path66"
             style="fill:#ffffff;fill-opacity:1;fill-rule:nonzero;stroke:none"
             d="m 0,0 c 0,-17.435 -14.134,-31.569 -31.569,-31.569 -17.435,0 -31.568,14.134 -31.568,31.569 0,17.435 14.133,31.569 31.568,31.569 C -14.134,31.569 0,17.435 0,0" /></g><g
           transform="translate(220.7679,251.2992)"
           id="g68"><path
             id="path70"
             style="fill:#0a0b0c;fill-opacity:1;fill-rule:nonzero;stroke:none"
             d="m 0,0 c 0,-6.264 -5.078,-11.342 -11.342,-11.342 -6.264,0 -11.342,5.078 -11.342,11.342 0,6.264 5.078,11.342 11.342,11.342 C -5.078,11.342 0,6.264 0,0" /></g><g
           transform="translate(215.1868,247.4105)"
           id="g72"><path
             id="path74"
             style="fill:#ffffff;fill-opacity:1;fill-rule:nonzero;stroke:none"
             d="m 0,0 c 0,-1.591 -1.29,-2.88 -2.88,-2.88 -1.591,0 -2.881,1.289 -2.881,2.88 0,1.591 1.29,2.88 2.881,2.88 C -1.29,2.88 0,1.591 0,0" /></g><g
           transform="translate(175.0113,228.2664)"
           id="g76"><path
             id="path78"
             style="fill:#118080;fill-opacity:1;fill-rule:nonzero;stroke:none"
             d="M 0,0 27.231,0.46 14.35,-23.089 Z" /></g><g
           transform="translate(235.2108,161.7072)"
           id="g80"><path
             id="path82"
             style="fill:#31a8a2;fill-opacity:1;fill-rule:nonzero;stroke:none"
             d="m 0,0 c 0,0 -1.352,32.114 -36.976,26.343 -3.74,-0.606 -7.324,-1.939 -10.616,-3.812 -3.292,1.873 -6.877,3.206 -10.617,3.812 C -93.833,32.114 -95.185,0 -95.185,0 c 2.823,-18.352 42.06,-29.22 47.293,-30.592 0.195,-0.076 0.489,-0.049 0.614,-0.001 C -41.527,-29.075 -2.799,-18.2 0,0" /></g><g
           transform="translate(111.3998,218.0508)"
           id="g84"><path
             id="path86"
             style="fill:#118080;fill-opacity:1;fill-rule:nonzero;stroke:none"
             d="m 0,0 c 0,0 24.429,-24.301 20.043,-40.739 0,0 -0.757,-18.971 5.502,-23.38 0,0 -40.047,9.762 -32.681,37.371 0.563,2.11 4.669,7.234 7.136,26.748" /></g><g
           transform="translate(265.744,220.4416)"
           id="g88"><path
             id="path90"
             style="fill:#118080;fill-opacity:1;fill-rule:nonzero;stroke:none"
             d="m 0,0 c 0,0 -24.671,-24.054 -20.451,-40.536 0,0 0.567,-18.978 -5.736,-23.323 0,0 40.143,9.359 33.054,37.041 C 6.326,-24.703 2.271,-19.537 0,0" /></g></g></g><text
       id="text94"
       style="font-variant:normal;font-weight:normal;font-stretch:normal;font-size:50.57429886px;font-family:'Gotham Rounded Book';-inkscape-font-specification:GothamRounded-Book;writing-mode:lr-tb;fill:#118080;fill-opacity:1;fill-rule:nonzero;stroke:none"
       transform="matrix(1,0,0,-1,106.3062,58.0469)"><tspan
         id="tspan92"
         y="0"
         x="0 41.420353 97.102654 128.40814">OWLZ</tspan></text>
<text
       id="text98"
       style="font-variant:normal;font-weight:300;font-stretch:normal;font-size:14.33749962px;font-family:'Poppins Light';-inkscape-font-specification:Poppins-Light;writing-mode:lr-tb;fill:#1c918e;fill-opacity:1;fill-rule:nonzero;stroke:none"
       transform="matrix(1,0,0,-1,133.4854,41.3398)"><tspan
         id="tspan96"
         y="0"
         x="0 5.1041498 14.179788 23.097712 27.026188 38.71125 41.994537 49.306664 58.224586 62.153061 70.941948 80.017586 89.22226 92.505547 101.29444">the wise choice</tspan></text>
</g></svg>