<svg xmlns="http://www.w3.org/2000/svg" version="1.0" width="2560.000000" height="2560.000000" preserveAspectRatio="xMidYMid meet" style=""><rect id="backgroundrect" width="100%" height="100%" x="0" y="0" fill="none" stroke="none"/>


<g class="currentLayer" style=""><title>Layer 1</title><g transform="translate(0,2560) scale(0.10000000149011612,-0.10000000149011612) " fill="#ffffff" stroke="#ffffff" id="svg_1" class="selected" stroke-opacity="1" fill-opacity="1">
<path d="M7965 23360 c-537 -43 -958 -177 -1340 -428 -156 -102 -253 -180 -399 -322 -467 -453 -891 -1072 -1248 -1824 -862 -1819 -1363 -4087 -1513 -6856 -35 -657 -40 -868 -40 -1815 0 -950 5 -1142 41 -1770 101 -1775 381 -3288 809 -4378 66 -167 72 -173 157 -162 108 15 249 110 447 301 68 65 152 154 186 196 57 70 64 85 85 170 102 421 368 1048 735 1733 62 116 165 316 230 445 707 1414 1262 2148 1626 2150 90 0 131 -46 166 -187 23 -92 23 -449 -1 -653 -78 -681 -148 -1502 -187 -2170 -20 -352 -22 -1111 -5 -1580 24 -626 54 -892 142 -1228 69 -267 153 -465 272 -646 118 -180 267 -316 437 -401 135 -67 203 -85 319 -85 120 0 190 17 316 76 338 160 727 534 1266 1219 594 754 1153 1527 1705 2356 324 487 546 854 969 1609 664 1184 664 1183 671 1162 9 -24 37 -317 49 -512 6 -91 15 -361 20 -600 10 -432 16 -563 45 -880 64 -704 209 -1377 427 -1979 176 -486 410 -804 693 -941 79 -39 223 -80 279 -80 17 0 39 -9 51 -20 19 -18 27 -19 80 -10 288 47 670 441 1122 1158 379 600 650 1131 897 1755 295 743 531 1605 666 2427 12 74 24 136 25 138 1 2 85 -13 186 -32 744 -143 1452 -205 2514 -221 840 -13 1358 46 1817 204 290 101 572 273 711 435 l39 46 -107 0 -107 0 -61 -53 c-134 -117 -262 -193 -433 -261 -315 -124 -629 -183 -1279 -238 -233 -20 -1000 -16 -1250 5 -530 46 -1036 119 -1508 217 -166 35 -506 117 -515 126 -2 1 2 13 9 26 7 12 21 104 30 203 80 797 27 1448 -161 2015 -164 493 -428 900 -770 1186 -433 362 -1026 553 -1721 554 -391 0 -709 -87 -954 -263 -288 -207 -422 -438 -455 -786 -27 -286 40 -611 190 -916 269 -551 763 -992 1625 -1452 574 -306 1204 -539 1835 -678 91 -21 168 -40 173 -44 9 -9 -37 -239 -94 -466 -114 -455 -360 -1217 -580 -1791 -308 -808 -874 -2032 -1157 -2504 -158 -265 -333 -474 -433 -520 -56 -25 -125 -26 -164 -1 -64 38 -120 189 -149 399 -31 222 -35 448 -41 2207 -3 985 -9 1889 -14 2010 -6 121 -15 346 -21 500 -16 425 -48 686 -111 896 -23 80 -68 127 -150 155 -72 25 -276 25 -404 0 -537 -103 -855 -283 -1005 -568 l-44 -85 32 -66 c39 -78 65 -151 97 -268 l23 -86 -225 -379 c-124 -209 -349 -590 -500 -848 -816 -1392 -1509 -2471 -2291 -3566 -309 -432 -671 -910 -821 -1085 -254 -295 -572 -610 -665 -657 l-39 -20 -66 21 c-36 12 -85 26 -107 31 -59 14 -77 46 -82 145 -2 44 4 152 13 240 9 88 20 254 25 370 7 165 19 288 59 570 164 1156 267 2140 301 2865 13 281 13 917 0 1112 -41 605 -158 1042 -362 1353 -68 105 -222 258 -321 319 -194 120 -429 170 -619 131 -211 -44 -396 -138 -628 -321 -114 -90 -388 -368 -542 -551 -565 -671 -1156 -1671 -1508 -2553 -135 -337 -276 -812 -326 -1097 -9 -57 -18 -102 -20 -100 -5 5 -44 209 -68 352 -108 638 -163 1283 -187 2190 -17 635 9 2587 36 2750 4 19 48 81 121 170 725 874 1459 1797 1869 2350 668 900 1329 1855 1697 2450 866 1405 1474 2790 1808 4122 216 864 72 1485 -438 1892 -345 274 -775 433 -1297 481 -161 15 -483 20 -610 10z m1230 -354 c186 -35 442 -129 587 -214 410 -242 537 -720 383 -1449 -46 -218 -182 -684 -307 -1053 -359 -1056 -851 -2099 -1498 -3175 -436 -726 -1344 -2066 -1953 -2885 -316 -425 -1548 -2025 -1553 -2017 -1 3 14 224 31 442 106 1369 309 2835 596 4295 292 1488 719 2882 1223 3992 97 215 291 603 369 738 380 663 880 1119 1410 1289 211 68 477 81 712 37z m7150 -8517 c390 -47 731 -221 1059 -539 375 -364 576 -843 658 -1570 19 -175 16 -769 -6 -993 -21 -219 -41 -375 -48 -382 -15 -15 -388 97 -620 185 -360 138 -656 290 -983 506 -425 280 -691 531 -908 856 -171 256 -285 544 -338 858 -20 115 -18 339 5 435 51 222 197 405 420 526 215 116 463 154 761 118z" id="svg_2" stroke="#ffffff" stroke-opacity="1" fill="#ffffff" fill-opacity="1"/>
</g></g></svg>